<svg version="1.1" id="Layer_1" xmlns="http://www.w3.org/2000/svg" xmlns:xlink="http://www.w3.org/1999/xlink" x="0px" y="0px"
	 width="100%" viewBox="0 0 1024 576" enable-background="new 0 0 1024 576" xml:space="preserve">
<path fill="#000000" opacity="1.000000" stroke="none" 
	d="
M369.000000,210.844406 
	C442.982697,210.825714 516.465393,210.809235 589.948120,210.787277 
	C598.026306,210.784866 598.020752,210.770264 598.006165,202.454559 
	C597.999756,198.788879 598.057800,195.122818 598.020203,191.457596 
	C597.981689,187.704590 599.790161,186.497086 603.407227,187.005508 
	C612.948059,188.346573 619.895508,194.639542 620.847107,204.765961 
	C621.382019,210.458176 623.833801,210.926178 628.441345,210.903061 
	C659.100098,210.749069 689.759888,210.815399 720.419373,210.809753 
	C720.919250,210.809662 721.419128,210.800522 721.919006,210.803284 
	C724.947266,210.819962 727.990784,211.262146 727.985291,215.077393 
	C727.979614,219.006332 724.774231,219.183548 721.834595,219.185303 
	C690.508606,219.204056 659.182556,219.199341 627.856567,219.210678 
	C621.254333,219.213074 621.230103,219.231079 621.233459,225.846436 
	C621.250000,258.338806 621.280579,290.831207 621.306152,323.323578 
	C621.311462,330.118286 621.311401,330.126343 614.334290,330.173096 
	C610.835266,330.196533 607.325134,330.011353 603.839661,330.231995 
	C599.454773,330.509521 598.003235,328.568390 598.023071,324.328918 
	C598.127686,302.001617 598.059448,279.673462 598.035156,257.345612 
	C598.023743,246.848373 598.000549,236.351013 597.936584,225.854004 
	C597.897827,219.498169 597.579712,219.204132 591.050232,219.204758 
	C488.740814,219.214478 386.431366,219.232056 284.121948,219.242996 
	C280.956573,219.243347 277.787354,219.277649 274.627014,219.137253 
	C272.144257,219.026932 270.481293,217.712875 270.481049,215.090042 
	C270.480804,212.529495 271.993408,211.121002 274.524353,210.913132 
	C275.849487,210.804260 277.188080,210.842148 278.520599,210.842087 
	C308.513733,210.840652 338.506866,210.843201 369.000000,210.844406 
z"/>
<path fill="#000000" opacity="1.000000" stroke="none" 
	d="
M723.272461,288.000366 
	C723.276123,296.161713 723.194275,303.824463 723.317078,311.483917 
	C723.398438,316.560120 724.455811,321.162323 730.379639,322.685333 
	C731.887024,323.072845 733.130676,324.035736 733.156616,325.806976 
	C733.185852,327.800507 731.843140,328.792175 730.142944,329.296844 
	C722.340454,331.612915 714.390137,332.397034 706.522522,330.069153 
	C699.459961,327.979431 696.025818,322.063080 695.734497,312.736176 
	C695.313477,299.256775 696.042969,285.764008 695.106445,272.284760 
	C694.422546,262.440247 691.022400,259.111816 680.968018,259.119446 
	C667.375793,259.129761 667.364075,259.129730 667.334595,272.384216 
	C667.305725,285.375153 667.246643,298.366486 667.312500,311.357025 
	C667.350342,318.825714 668.266602,319.900787 675.546387,322.164154 
	C677.930298,322.905365 680.041809,324.051514 679.706360,326.938904 
	C679.352661,329.983948 676.903625,330.255920 674.435486,330.255493 
	C660.111938,330.252991 645.788452,330.255188 631.464905,330.258331 
	C628.999207,330.258850 626.575134,330.012512 626.282959,326.892975 
	C625.986633,323.728882 628.036133,322.379608 630.829773,322.095795 
	C636.496765,321.520050 639.396973,317.861603 639.464539,312.782715 
	C639.688416,295.976196 640.258911,279.157013 639.156128,262.352966 
	C638.830017,257.383240 636.490662,254.277115 631.499390,253.310532 
	C629.344604,252.893204 627.679382,251.876434 627.885620,249.352966 
	C628.097534,246.758621 630.198242,246.245117 632.200806,246.021484 
	C642.653992,244.854095 652.894531,242.730499 662.862915,239.367966 
	C665.959656,238.323395 667.209473,239.440308 667.280884,242.561478 
	C667.321716,244.346802 666.860229,246.224304 667.926880,248.008072 
	C670.318481,248.559784 671.935974,246.822906 673.772278,245.879196 
	C682.716797,241.282578 692.032471,238.550934 702.163269,240.493713 
	C715.859924,243.120285 722.981567,251.576294 723.265991,265.516357 
	C723.415405,272.841370 723.280457,280.172180 723.272461,288.000366 
z"/>
<path fill="#000000" opacity="1.000000" stroke="none" 
	d="
M205.150436,330.871613 
	C199.175140,330.699432 193.681763,330.495331 188.186539,330.372467 
	C185.678085,330.316376 183.265198,330.008026 183.147598,326.879639 
	C183.048096,324.232697 185.023453,323.301117 187.347580,322.780090 
	C195.337769,320.988800 197.534805,318.756836 197.569229,310.592773 
	C197.712631,276.595947 197.701111,242.597839 197.565308,208.600937 
	C197.534393,200.859650 195.422745,198.768463 187.788071,197.341492 
	C185.406006,196.896271 183.531158,195.938141 183.540436,193.307739 
	C183.550461,190.467896 185.679886,189.804214 188.047791,189.801041 
	C204.045944,189.779495 220.044159,189.770859 236.042282,189.797455 
	C238.417007,189.801392 240.529160,190.744431 240.786224,193.298203 
	C241.049408,195.912781 239.087585,196.858521 236.748978,197.478241 
	C229.285400,199.456055 227.441849,201.676132 227.417694,209.373611 
	C227.315689,241.871002 227.331726,274.368744 227.296173,306.866364 
	C227.291092,311.499237 228.741714,315.319672 233.819763,316.058929 
	C242.303818,317.294098 250.816238,316.753021 259.013397,314.321838 
	C266.729523,312.033356 270.492310,305.772247 273.237701,298.635712 
	C274.403809,295.604431 274.932404,290.815613 279.764069,291.957672 
	C284.818726,293.152435 283.066376,297.723877 282.849579,301.200439 
	C282.383453,308.675201 281.721069,316.137543 281.227478,323.610840 
	C280.766296,330.593048 280.451752,331.027100 273.625854,331.021606 
	C250.961090,331.003296 228.296341,330.926971 205.150436,330.871613 
z"/>
<path fill="#000000" opacity="1.000000" stroke="none" 
	d="
M495.118866,316.850952 
	C497.134552,315.706909 498.703857,315.768646 499.743347,317.551178 
	C500.975433,319.663940 499.892212,321.406128 498.482239,322.938599 
	C488.664032,333.609772 466.669281,335.294037 459.866882,321.587311 
	C459.589935,321.029327 459.025879,320.613861 458.447998,319.966675 
	C453.681274,322.526367 449.137451,325.286743 444.334625,327.479706 
	C433.891510,332.247925 423.114075,333.033875 412.340912,328.689514 
	C403.968658,325.313324 398.873932,318.990814 397.768066,309.949188 
	C396.563232,300.098663 400.332001,292.255859 408.608459,286.884644 
	C417.797852,280.921021 428.421204,279.352386 438.987976,277.840881 
	C442.768616,277.300079 446.606995,276.717712 450.400208,276.824158 
	C454.968475,276.952393 456.025635,274.771301 456.091797,270.751740 
	C456.339050,255.726288 447.101288,247.571457 433.564667,250.938141 
	C430.895020,251.602097 429.943665,252.448151 430.956909,255.379776 
	C433.205353,261.885162 431.905762,266.152863 427.209351,269.433319 
	C421.584717,273.362152 413.059814,273.294647 407.970215,269.280945 
	C403.361542,265.646515 401.544769,258.918335 403.755859,253.505798 
	C405.607788,248.972656 408.918243,245.836761 413.259460,243.685410 
	C417.497955,241.584961 422.058990,240.205933 426.673920,240.018677 
	C439.801941,239.486008 452.975952,238.794861 465.973389,241.730118 
	C478.502258,244.559555 484.197021,251.472580 484.263153,264.221588 
	C484.337433,278.545105 484.302826,292.869202 484.354156,307.192871 
	C484.360687,309.014099 484.410797,310.872223 484.765106,312.648560 
	C486.130859,319.495911 488.670776,320.572540 495.118866,316.850952 
M453.193054,311.599548 
	C454.289215,310.812958 455.513977,309.979401 455.527588,308.528900 
	C455.597321,301.102325 455.559814,293.674744 455.559814,285.969391 
	C447.345978,286.080292 439.960724,287.078400 433.023132,290.051117 
	C427.114166,292.582977 424.165039,299.289062 425.498779,305.975250 
	C426.687897,311.936279 431.321350,315.474243 438.238190,315.752991 
	C443.393799,315.960754 448.086914,314.451172 453.193054,311.599548 
z"/>
<path fill="#000000" opacity="1.000000" stroke="none" 
	d="
M747.697998,233.996368 
	C751.113953,210.305176 771.402954,194.238647 791.081665,191.870773 
	C813.466125,189.177368 834.582703,200.970276 843.729309,221.112442 
	C851.697632,238.659668 848.310608,261.117920 834.247009,274.318939 
	C825.235413,282.777924 820.683960,292.165955 820.101990,304.411133 
	C819.708313,312.694458 817.777466,321.053284 809.255432,325.622772 
	C807.875671,326.362610 807.503479,327.978973 806.745361,329.263458 
	C802.249329,336.881104 791.933594,336.814789 787.533081,329.144104 
	C786.620239,327.552948 785.994995,325.705353 784.294006,324.810547 
	C775.096985,319.972565 773.252197,311.174011 773.342407,302.248352 
	C773.453796,291.230652 769.458679,282.945404 761.597961,275.374664 
	C750.130554,264.330200 745.541870,250.383209 747.697998,233.996368 
M791.800171,219.101868 
	C799.718384,217.323669 803.810852,219.983337 805.579590,227.810791 
	C806.560913,232.153336 805.812500,236.595795 806.365234,241.786362 
	C808.050415,239.062653 809.547974,237.250900 812.026611,236.864960 
	C814.760315,236.439301 817.440674,236.694397 819.413330,238.886154 
	C821.955383,241.710678 821.794373,244.995728 820.419739,248.255981 
	C815.504700,259.913727 810.493347,271.535919 807.740723,283.955811 
	C807.290894,285.985596 806.240234,288.049377 807.421875,290.198547 
	C812.076965,291.776398 814.843384,290.113281 816.084412,285.534851 
	C817.486389,280.362793 820.605347,276.527039 824.731689,273.077606 
	C835.489014,264.084869 840.655823,252.546844 839.864380,238.319305 
	C838.947998,221.845917 826.935974,206.292404 810.850830,201.347427 
	C793.260742,195.939774 773.720886,201.853943 763.732178,215.608902 
	C750.303955,234.100204 752.724854,256.556854 770.107849,273.320038 
	C773.894409,276.971649 777.051697,280.821747 778.625488,285.974792 
	C780.271790,291.365479 782.289734,292.051941 788.240234,289.700134 
	C786.197449,280.858795 784.385986,271.923065 780.968811,263.395233 
	C778.617615,257.527466 776.406921,251.602737 774.188538,245.682846 
	C773.347534,243.438629 772.596313,241.002106 775.381897,239.565033 
	C778.312866,238.052933 780.126831,239.942856 781.481995,242.208282 
	C782.561890,244.013474 783.354980,245.990250 784.903625,249.188049 
	C783.414368,241.271729 783.314392,234.821960 784.743958,228.397186 
	C785.605042,224.526840 787.193359,221.129822 791.800171,219.101868 
M799.466125,250.454956 
	C798.880493,249.696442 798.294861,248.937927 797.645081,248.096344 
	C794.198730,250.509460 792.836670,254.326706 790.065735,256.929443 
	C789.204895,257.738037 788.422302,258.687042 788.778076,259.981903 
	C790.842346,267.495819 792.918823,275.006561 795.057251,282.499573 
	C795.380310,283.631714 796.105530,284.673859 797.528259,284.537384 
	C798.647095,284.430084 799.254883,283.537933 799.565369,282.577820 
	C800.535095,279.579193 801.058899,276.380188 802.405396,273.570282 
	C806.315613,265.410370 806.659729,257.846008 799.466125,250.454956 
M802.414368,299.144501 
	C795.587402,299.144501 788.760498,299.144501 780.762634,299.144501 
	C785.237183,303.364532 805.869995,303.550446 811.405640,300.426758 
	C808.914673,298.171112 805.985840,299.529694 802.414368,299.144501 
M792.276978,231.148178 
	C792.001404,234.517807 791.627441,237.892212 792.348328,241.321426 
	C797.923584,239.515244 797.644043,235.178787 797.672180,231.040512 
	C797.684570,229.223434 797.728699,226.922943 795.490417,226.598373 
	C793.119507,226.254578 792.857178,228.585342 792.276978,231.148178 
M785.743713,311.779938 
	C793.710693,311.779938 801.677673,311.779938 809.644653,311.779938 
	C807.257568,310.091095 787.208435,309.564148 785.139160,310.262451 
	C784.333679,310.534332 784.320251,311.141571 785.743713,311.779938 
M795.583618,319.459045 
	C793.594360,319.693146 791.605042,319.927246 788.720764,320.266693 
	C796.302246,324.875031 799.923462,324.574371 804.460205,319.486694 
	C801.636108,319.486694 798.998596,319.486694 795.583618,319.459045 
z"/>
<path fill="#000000" opacity="1.000000" stroke="none" 
	d="
M339.989990,285.087158 
	C335.161316,285.133118 330.821869,285.355438 326.501068,285.161469 
	C322.450775,284.979584 320.795868,286.314758 321.180756,290.616913 
	C323.363312,315.013184 340.666290,322.555908 362.224487,315.749847 
	C366.855042,314.287933 370.872467,311.462738 374.406342,308.085754 
	C376.417450,306.164001 378.525391,304.943512 380.881989,307.313477 
	C383.119049,309.563293 381.625336,311.697906 380.097931,313.494598 
	C371.255768,323.895721 359.870270,329.744263 346.406830,331.056366 
	C330.405518,332.615814 315.229889,330.358124 303.771729,317.642548 
	C290.709198,303.146484 288.488617,286.168549 294.701599,268.208954 
	C300.678162,250.932678 313.557098,241.726334 331.575073,239.639938 
	C345.193390,238.062973 358.207458,239.388077 369.409332,248.351746 
	C379.624939,256.526184 382.858917,267.745483 383.220398,280.219940 
	C383.321014,283.692230 381.324432,284.290070 378.430695,284.333099 
	C365.782013,284.521210 353.134979,284.821899 339.989990,285.087158 
M344.462494,276.672363 
	C347.286743,276.664429 350.112000,276.605652 352.934906,276.663849 
	C355.398895,276.714630 356.880920,275.713501 356.515289,273.141937 
	C355.746735,267.737396 355.257050,262.266449 352.351410,257.384705 
	C346.188232,247.029984 332.636658,246.714218 326.049652,256.856964 
	C322.979919,261.583771 321.949158,266.945770 321.330536,272.431213 
	C320.970367,275.625153 322.199249,276.950104 325.534943,276.829987 
	C331.508850,276.614868 337.494324,276.719086 344.462494,276.672363 
z"/>
<path fill="#000000" opacity="1.000000" stroke="none" 
	d="
M545.686523,313.089539 
	C546.565979,318.834137 549.440063,321.791687 555.016663,322.170624 
	C557.568420,322.344055 560.274109,323.301544 559.813965,326.651520 
	C559.388000,329.753082 556.809448,330.247742 554.112610,330.243378 
	C539.457458,330.219757 524.802124,330.251801 510.147278,330.179352 
	C507.720551,330.167358 504.751404,330.418640 504.522186,326.809052 
	C504.324585,323.698090 506.376587,322.259674 509.175995,322.054321 
	C515.054688,321.623016 517.475037,317.867340 517.480713,312.707947 
	C517.499023,296.066559 518.323547,279.409668 516.880798,262.783875 
	C516.578064,259.295197 514.943481,256.880310 511.632202,255.577682 
	C509.162323,254.606064 506.196503,253.765213 506.904266,250.204132 
	C507.610962,246.648422 510.837921,247.167435 513.380493,246.910950 
	C523.694946,245.870453 533.558533,242.841431 543.863708,239.921631 
	C546.439148,243.891617 544.220520,248.475952 545.634033,252.867767 
	C549.007507,250.096939 552.053040,247.380096 555.321350,244.964600 
	C559.565979,241.827438 564.403564,239.880707 569.721191,240.024399 
	C577.910156,240.245667 584.257385,246.771194 585.228333,255.566498 
	C586.012268,262.666962 583.567566,268.730804 578.799133,273.801971 
	C574.023315,278.880951 566.875366,280.080872 561.454712,277.099213 
	C556.050171,274.126404 554.133789,268.042877 556.192383,259.805511 
	C552.541321,259.223877 550.273499,261.170959 548.478210,263.807587 
	C546.461426,266.769440 545.473938,270.199463 545.458374,273.719604 
	C545.400818,286.703918 545.536682,299.689117 545.686523,313.089539 
z"/>
<path fill="#000000" opacity="1.000000" stroke="none" 
	d="
M653.213379,371.769257 
	C650.382812,368.488251 647.792175,365.469604 645.201477,362.450958 
	C644.806335,362.514343 644.411133,362.577698 644.015991,362.641052 
	C644.015991,370.004700 644.054321,377.368652 643.994629,384.731812 
	C643.974487,387.218475 643.860901,389.725281 643.509399,392.182739 
	C643.116333,394.931763 641.143860,396.179871 638.522522,396.055298 
	C635.863525,395.928986 634.110291,394.337952 633.940491,391.658173 
	C633.709229,388.006897 633.769165,384.335236 633.760681,380.672211 
	C633.741089,372.177734 633.785828,363.683044 633.741089,355.188782 
	C633.722778,351.713318 633.916504,348.295837 637.817566,346.938385 
	C642.002991,345.481934 645.283997,347.291016 647.948792,350.469299 
	C655.331299,359.274323 662.687927,368.101013 670.069214,376.907043 
	C670.906006,377.905334 671.834717,378.826508 672.772766,379.839508 
	C674.583374,378.392120 673.804077,376.610535 673.819336,375.101044 
	C673.895081,367.606995 673.784912,360.111176 673.843262,352.616821 
	C673.869812,349.207703 675.243408,346.682526 679.115784,346.775574 
	C682.671326,346.860962 684.078796,349.259674 684.101746,352.439575 
	C684.191956,364.930664 684.178162,377.422607 684.179504,389.914215 
	C684.179810,392.453613 683.146423,394.512238 680.768005,395.554779 
	C677.670715,396.912415 674.675415,396.083282 672.446228,393.891083 
	C669.012329,390.513977 665.916138,386.786530 662.761353,383.134583 
	C659.604492,379.480377 656.551697,375.736328 653.213379,371.769257 
z"/>
<path fill="#000000" opacity="1.000000" stroke="none" 
	d="
M309.535767,373.400055 
	C307.043274,379.449463 304.676331,385.134674 302.343384,390.833832 
	C301.200531,393.625763 299.521820,395.856598 296.254089,395.979919 
	C292.953156,396.104462 291.196747,393.863861 289.831543,391.229858 
	C287.774017,387.260101 285.721313,383.287811 283.444702,378.887787 
	C280.426514,382.344025 279.200500,386.319153 277.284149,389.883728 
	C275.508636,393.186279 273.700500,396.415161 269.205811,396.231140 
	C264.827057,396.051880 263.582611,392.588623 262.182709,389.387756 
	C257.246674,378.101746 252.365448,366.791656 247.464798,355.490143 
	C246.171539,352.507721 244.638443,349.268311 248.693726,347.344116 
	C253.020782,345.290955 255.227707,348.297882 256.722137,351.704102 
	C260.533051,360.390228 264.187683,369.144989 267.899323,377.874634 
	C268.406006,379.066376 268.723389,380.383087 270.216187,381.233643 
	C273.316284,377.546967 274.791382,373.074554 277.169647,369.144989 
	C278.687225,366.637543 280.227020,364.293213 283.629486,364.488953 
	C286.741455,364.667969 288.131256,366.877625 289.458679,369.307800 
	C291.431732,372.919983 292.725067,376.937073 295.645660,380.394073 
	C297.700531,378.552979 298.099091,376.197968 298.941925,374.119873 
	C301.694794,367.332153 304.347534,360.503754 307.119476,353.723969 
	C307.807465,352.041260 308.650238,350.378540 309.687714,348.892212 
	C311.212830,346.707306 313.427490,346.079895 315.842896,347.267212 
	C318.679047,348.661346 318.773590,351.120880 317.733307,353.678680 
	C315.099579,360.154236 312.367828,366.589966 309.535767,373.400055 
z"/>
<path fill="#000000" opacity="1.000000" stroke="none" 
	d="
M567.474731,375.497406 
	C571.929443,367.461517 576.073059,359.671143 580.518555,352.057007 
	C585.101868,344.206879 592.306519,344.052643 596.724304,351.880798 
	C603.347229,363.616119 609.580688,375.572144 615.916992,387.467712 
	C617.509155,390.456635 618.403992,393.681915 614.530884,395.604675 
	C610.840393,397.436768 608.552124,394.765656 607.618347,391.911499 
	C605.282959,384.772827 600.302734,383.508820 593.669250,384.109772 
	C588.549927,384.573578 583.347656,384.419861 578.200073,384.170563 
	C574.682617,384.000153 572.482605,385.208588 571.302063,388.501007 
	C570.912903,389.586426 570.283691,390.596069 569.688660,391.595398 
	C567.991943,394.445190 566.083557,397.265686 562.221375,395.084137 
	C558.700317,393.095276 559.683838,390.049316 561.126343,387.239227 
	C563.101685,383.391174 565.232239,379.622833 567.474731,375.497406 
M591.008057,360.809814 
	C590.147217,359.585571 589.182861,357.770386 587.725220,359.946014 
	C584.719971,364.431458 581.753235,368.979858 579.716919,374.695251 
	C585.931885,375.239868 591.425171,375.194916 597.304138,374.516083 
	C595.995850,369.367462 593.367615,365.505280 591.008057,360.809814 
z"/>
<path fill="#000000" opacity="1.000000" stroke="none" 
	d="
M427.065948,396.039551 
	C423.693420,395.382416 422.666351,393.402954 422.630859,390.551849 
	C422.479462,378.392731 422.250946,366.234558 422.105011,354.075409 
	C422.089233,352.762390 422.264923,351.397491 422.635254,350.140137 
	C423.335846,347.761719 425.074219,346.588684 427.549561,346.813599 
	C429.922913,347.029236 431.662750,348.242798 432.135284,350.691528 
	C432.384796,351.984528 432.337341,353.343048 432.348236,354.672607 
	C432.454895,367.654053 432.450348,367.656128 445.650604,367.650391 
	C448.650208,367.649109 451.651855,367.554993 454.648865,367.637329 
	C457.620728,367.718964 458.891205,366.337646 458.867889,363.426514 
	C458.839874,359.928345 458.833496,356.423187 459.022156,352.932068 
	C459.203186,349.582275 460.694366,346.879944 464.423431,347.050232 
	C468.105377,347.218384 469.293915,349.843781 469.272949,353.335938 
	C469.200836,365.334167 469.217163,377.333221 469.263489,389.331696 
	C469.277405,392.928833 468.248047,395.859253 464.188354,395.916199 
	C460.312439,395.970581 459.418915,392.920990 459.128387,389.712433 
	C459.038361,388.718079 459.027557,387.715729 459.001984,386.716461 
	C458.736023,376.320557 458.737244,376.320099 448.068512,376.320496 
	C444.235596,376.320648 440.397339,376.449921 436.571442,376.286957 
	C433.282837,376.146912 432.091034,377.558197 432.250549,380.742828 
	C432.408752,383.900421 432.259979,387.073334 432.247314,390.239532 
	C432.234375,393.471100 431.067474,395.757172 427.065948,396.039551 
z"/>
<path fill="#000000" opacity="1.000000" stroke="none" 
	d="
M769.668762,391.461395 
	C757.289001,380.566772 756.177917,364.948334 766.753723,354.317169 
	C777.174988,343.841492 793.118408,344.252380 803.200562,355.256531 
	C810.882324,363.640808 811.544556,376.994873 804.732849,386.156433 
	C797.403870,396.013733 784.090576,399.107880 772.931030,393.519897 
	C771.893921,393.000641 770.946472,392.302460 769.668762,391.461395 
M769.279053,373.146973 
	C770.739685,380.567749 775.235413,385.534332 781.453735,386.596863 
	C787.798523,387.681000 794.349670,384.984772 797.537109,379.977417 
	C800.878662,374.727814 800.618103,367.061279 796.931335,362.153534 
	C793.000122,356.920319 786.287109,354.781677 780.023621,356.767059 
	C773.274170,358.906464 769.476685,364.384430 769.279053,373.146973 
z"/>
<path fill="#000000" opacity="1.000000" stroke="none" 
	d="
M530.466187,355.386841 
	C528.898621,355.316589 527.731201,355.236176 526.570007,355.289948 
	C523.640503,355.425476 521.243530,356.581940 520.672241,359.658539 
	C520.117554,362.645569 522.286987,364.327209 524.627869,365.325470 
	C527.366516,366.493347 530.314453,367.164520 533.156921,368.095886 
	C541.762573,370.915558 545.248596,375.924652 544.256348,383.998230 
	C543.441650,390.626923 537.141724,395.853699 529.369324,396.362427 
	C523.727478,396.731689 518.371887,395.746674 513.655273,392.534576 
	C510.937439,390.683655 508.490906,388.130859 510.503113,384.624176 
	C512.604553,380.961975 515.544128,382.866577 518.301331,384.244629 
	C522.138245,386.162323 525.922058,388.531860 530.564087,386.950104 
	C532.925903,386.145294 534.835999,384.807922 535.139160,382.197662 
	C535.471313,379.336700 533.371277,378.043396 531.113525,377.192413 
	C528.315247,376.137604 525.452209,375.244690 522.589417,374.372864 
	C514.471680,371.900879 510.001770,366.060730 511.022614,359.180511 
	C512.142273,351.634033 519.380066,345.649414 527.462341,346.037262 
	C532.457275,346.276978 537.402893,347.231140 541.619507,350.297363 
	C543.884277,351.944305 545.119507,354.044037 543.474487,356.706543 
	C541.991699,359.106415 539.687012,359.105286 537.297729,358.123016 
	C535.149841,357.240112 533.011597,356.333740 530.466187,355.386841 
z"/>
<path fill="#000000" opacity="1.000000" stroke="none" 
	d="
M710.205444,346.695282 
	C720.161743,346.709442 729.646484,346.704742 739.130981,346.751038 
	C740.784973,346.759094 742.478394,346.798096 744.081543,347.150543 
	C746.242126,347.625580 747.608704,349.116272 747.600525,351.400269 
	C747.592224,353.724915 746.119385,355.022583 743.955444,355.521790 
	C740.666565,356.280518 737.311218,356.080994 734.016113,355.759308 
	C730.824097,355.447723 729.928284,356.775757 729.960754,359.723785 
	C730.061401,368.874420 730.013062,378.026794 729.993042,387.178436 
	C729.989807,388.671844 729.951904,390.182556 729.727234,391.654297 
	C729.328064,394.269043 727.770935,395.917145 725.078796,396.025452 
	C722.092346,396.145630 720.289124,394.369446 720.045715,391.564117 
	C719.716003,387.763123 719.804626,383.922882 719.779785,380.099030 
	C719.737671,373.609741 719.583252,367.114716 719.797302,360.632690 
	C719.921387,356.877533 718.192627,355.519470 714.797668,355.472412 
	C712.468567,355.440155 710.139709,355.381592 707.810608,355.372375 
	C704.889832,355.360809 702.218811,354.741882 702.291321,351.171844 
	C702.358093,347.883881 704.646484,346.652496 707.737244,346.709747 
	C708.402405,346.722076 709.068237,346.699951 710.205444,346.695282 
z"/>
<path fill="#000000" opacity="1.000000" stroke="none" 
	d="
M363.519958,346.852356 
	C375.602356,346.771393 387.239166,346.751984 398.875946,346.724152 
	C401.138000,346.718750 403.248108,347.065216 404.335938,349.378571 
	C405.135101,351.078094 404.578796,352.618500 403.484161,354.007690 
	C402.434296,355.340118 400.907196,355.358521 399.407593,355.464661 
	C398.081360,355.558502 396.760040,355.746796 395.432861,355.798492 
	C387.318970,356.114807 387.319580,356.105804 387.307526,364.548035 
	C387.295654,372.860291 387.255951,381.172577 387.280396,389.484741 
	C387.290863,393.040375 386.321991,396.018341 382.214783,396.029205 
	C378.126434,396.040039 377.068115,393.049561 377.041992,389.519196 
	C376.969421,379.711182 376.807129,369.902527 376.873627,360.095459 
	C376.894928,356.956635 375.969360,355.473297 372.620789,355.675476 
	C370.146454,355.824890 367.645020,355.460541 365.154144,355.420349 
	C362.828583,355.382812 360.702240,354.912811 360.061829,352.365204 
	C359.407440,349.761963 360.412598,347.813934 363.519958,346.852356 
z"/>
<path fill="#000000" opacity="1.000000" stroke="none" 
	d="
M333.018494,350.676270 
	C334.271423,347.630524 336.201355,346.331360 339.078033,347.022369 
	C341.806091,347.677673 342.630676,349.889954 342.763336,352.335754 
	C343.475433,365.466461 342.434021,378.584198 342.359741,391.710449 
	C342.344086,394.478912 340.432373,395.955139 337.818359,396.055725 
	C335.153778,396.158234 333.342865,394.620483 332.981384,391.978760 
	C332.668030,389.688660 332.752960,387.336090 332.759888,385.011444 
	C332.793640,373.708405 332.860352,362.405426 333.018494,350.676270 
z"/>
</svg>